<mxfile host="Electron" agent="Mozilla/5.0 (Windows NT 10.0; Win64; x64) AppleWebKit/537.36 (KHTML, like Gecko) draw.io/24.7.17 Chrome/128.0.6613.36 Electron/32.0.1 Safari/537.36" version="24.7.17">
  <diagram name="PÃ¡gina-1" id="A1Y2EhQFVSGSQT5lKNWS">
    <mxGraphModel dx="1674" dy="836" grid="1" gridSize="10" guides="1" tooltips="1" connect="1" arrows="1" fold="1" page="1" pageScale="1" pageWidth="827" pageHeight="1169" math="0" shadow="0">
      <root>
        <mxCell id="0" />
        <mxCell id="1" parent="0" />
        <mxCell id="_GzGoSDeJ9tNwSs_yldu-5" value="" style="image;aspect=fixed;perimeter=ellipsePerimeter;html=1;align=center;shadow=0;dashed=0;spacingTop=3;image=img/lib/active_directory/generic_server.svg;" vertex="1" parent="1">
          <mxGeometry x="460" y="137" width="28.000000000000004" height="50" as="geometry" />
        </mxCell>
        <mxCell id="_GzGoSDeJ9tNwSs_yldu-8" value="" style="image;aspect=fixed;perimeter=ellipsePerimeter;html=1;align=center;shadow=0;dashed=0;spacingTop=3;image=img/lib/active_directory/internet_cloud.svg;" vertex="1" parent="1">
          <mxGeometry x="30" y="240" width="150" height="94.5" as="geometry" />
        </mxCell>
        <mxCell id="_GzGoSDeJ9tNwSs_yldu-9" value="" style="image;html=1;image=img/lib/clip_art/networking/Router_Icon_128x128.png" vertex="1" parent="1">
          <mxGeometry x="340" y="137" width="36" height="50" as="geometry" />
        </mxCell>
        <mxCell id="_GzGoSDeJ9tNwSs_yldu-11" value="" style="image;html=1;image=img/lib/clip_art/networking/Firewall-page1_128x128.png" vertex="1" parent="1">
          <mxGeometry x="230" y="133.5" width="50" height="57" as="geometry" />
        </mxCell>
        <mxCell id="_GzGoSDeJ9tNwSs_yldu-13" value="" style="image;html=1;image=img/lib/clip_art/networking/Firewall-page1_128x128.png" vertex="1" parent="1">
          <mxGeometry x="225" y="410" width="60" height="60" as="geometry" />
        </mxCell>
        <mxCell id="_GzGoSDeJ9tNwSs_yldu-14" value="" style="image;html=1;image=img/lib/clip_art/networking/Router_Icon_128x128.png" vertex="1" parent="1">
          <mxGeometry x="336" y="420" width="40" height="50" as="geometry" />
        </mxCell>
        <mxCell id="_GzGoSDeJ9tNwSs_yldu-15" value="" style="verticalLabelPosition=bottom;html=1;verticalAlign=top;align=center;strokeColor=none;fillColor=#00BEF2;shape=mxgraph.azure.enterprise;pointerEvents=1;" vertex="1" parent="1">
          <mxGeometry x="460" y="430" width="40" height="50" as="geometry" />
        </mxCell>
        <mxCell id="_GzGoSDeJ9tNwSs_yldu-16" value="" style="image;html=1;image=img/lib/clip_art/networking/Router_Icon_128x128.png" vertex="1" parent="1">
          <mxGeometry x="335" y="470" width="45" height="30" as="geometry" />
        </mxCell>
        <mxCell id="_GzGoSDeJ9tNwSs_yldu-17" value="" style="ellipse;whiteSpace=wrap;html=1;fillColor=none;" vertex="1" parent="1">
          <mxGeometry x="188" y="62" width="340" height="200" as="geometry" />
        </mxCell>
        <mxCell id="_GzGoSDeJ9tNwSs_yldu-18" value="" style="ellipse;whiteSpace=wrap;html=1;fillColor=none;" vertex="1" parent="1">
          <mxGeometry x="210" y="355" width="340" height="170" as="geometry" />
        </mxCell>
        <mxCell id="_GzGoSDeJ9tNwSs_yldu-19" value="Centro de Processamento de Dados Altia&lt;div&gt;&lt;br&gt;&lt;/div&gt;" style="text;html=1;align=center;verticalAlign=middle;resizable=0;points=[];autosize=1;strokeColor=none;fillColor=none;" vertex="1" parent="1">
          <mxGeometry x="238" y="37" width="240" height="40" as="geometry" />
        </mxCell>
        <mxCell id="_GzGoSDeJ9tNwSs_yldu-20" value="LAN Selmark" style="text;html=1;align=center;verticalAlign=middle;resizable=0;points=[];autosize=1;strokeColor=none;fillColor=none;" vertex="1" parent="1">
          <mxGeometry x="324" y="318" width="90" height="30" as="geometry" />
        </mxCell>
        <mxCell id="_GzGoSDeJ9tNwSs_yldu-21" value="" style="endArrow=none;html=1;rounded=0;entryX=0;entryY=0.5;entryDx=0;entryDy=0;" edge="1" parent="1" target="_GzGoSDeJ9tNwSs_yldu-5">
          <mxGeometry width="50" height="50" relative="1" as="geometry">
            <mxPoint x="374" y="161.5" as="sourcePoint" />
            <mxPoint x="454" y="161.5" as="targetPoint" />
            <Array as="points">
              <mxPoint x="414" y="161.5" />
            </Array>
          </mxGeometry>
        </mxCell>
        <mxCell id="_GzGoSDeJ9tNwSs_yldu-23" value="" style="endArrow=none;html=1;rounded=0;entryX=0;entryY=0.5;entryDx=0;entryDy=0;" edge="1" parent="1">
          <mxGeometry width="50" height="50" relative="1" as="geometry">
            <mxPoint x="270" y="162" as="sourcePoint" />
            <mxPoint x="340" y="162" as="targetPoint" />
            <Array as="points">
              <mxPoint x="294" y="161.5" />
            </Array>
          </mxGeometry>
        </mxCell>
        <mxCell id="_GzGoSDeJ9tNwSs_yldu-24" value="" style="endArrow=none;html=1;rounded=0;entryX=0;entryY=0.5;entryDx=0;entryDy=0;exitX=0.75;exitY=0;exitDx=0;exitDy=0;" edge="1" parent="1" source="_GzGoSDeJ9tNwSs_yldu-8" target="_GzGoSDeJ9tNwSs_yldu-11">
          <mxGeometry width="50" height="50" relative="1" as="geometry">
            <mxPoint x="199" y="270" as="sourcePoint" />
            <mxPoint x="285" y="270.5" as="targetPoint" />
            <Array as="points" />
          </mxGeometry>
        </mxCell>
        <mxCell id="_GzGoSDeJ9tNwSs_yldu-25" value="" style="endArrow=none;html=1;rounded=0;entryX=0;entryY=0.5;entryDx=0;entryDy=0;exitX=0.75;exitY=1;exitDx=0;exitDy=0;" edge="1" parent="1" source="_GzGoSDeJ9tNwSs_yldu-8" target="_GzGoSDeJ9tNwSs_yldu-13">
          <mxGeometry width="50" height="50" relative="1" as="geometry">
            <mxPoint x="148" y="255" as="sourcePoint" />
            <mxPoint x="240" y="172" as="targetPoint" />
            <Array as="points" />
          </mxGeometry>
        </mxCell>
        <mxCell id="_GzGoSDeJ9tNwSs_yldu-26" value="" style="endArrow=none;html=1;rounded=0;entryX=0;entryY=0.25;entryDx=0;entryDy=0;" edge="1" parent="1" target="_GzGoSDeJ9tNwSs_yldu-14">
          <mxGeometry width="50" height="50" relative="1" as="geometry">
            <mxPoint x="280" y="420" as="sourcePoint" />
            <mxPoint x="250" y="182" as="targetPoint" />
            <Array as="points" />
          </mxGeometry>
        </mxCell>
        <mxCell id="_GzGoSDeJ9tNwSs_yldu-27" value="" style="endArrow=none;html=1;rounded=0;entryX=0;entryY=0.25;entryDx=0;entryDy=0;" edge="1" parent="1">
          <mxGeometry width="50" height="50" relative="1" as="geometry">
            <mxPoint x="279" y="467" as="sourcePoint" />
            <mxPoint x="335" y="480" as="targetPoint" />
            <Array as="points" />
          </mxGeometry>
        </mxCell>
        <mxCell id="_GzGoSDeJ9tNwSs_yldu-28" value="" style="endArrow=none;html=1;rounded=0;entryX=0;entryY=0.37;entryDx=0;entryDy=0;entryPerimeter=0;" edge="1" parent="1" target="_GzGoSDeJ9tNwSs_yldu-15">
          <mxGeometry width="50" height="50" relative="1" as="geometry">
            <mxPoint x="376" y="448.5" as="sourcePoint" />
            <mxPoint x="432" y="461.5" as="targetPoint" />
            <Array as="points" />
          </mxGeometry>
        </mxCell>
        <mxCell id="_GzGoSDeJ9tNwSs_yldu-29" value="" style="endArrow=none;html=1;rounded=0;entryX=0;entryY=0.37;entryDx=0;entryDy=0;entryPerimeter=0;" edge="1" parent="1">
          <mxGeometry width="50" height="50" relative="1" as="geometry">
            <mxPoint x="380" y="480" as="sourcePoint" />
            <mxPoint x="464" y="480.5" as="targetPoint" />
            <Array as="points" />
          </mxGeometry>
        </mxCell>
      </root>
    </mxGraphModel>
  </diagram>
</mxfile>
